<svg width="23" height="22" viewBox="0 0 23 22" fill="none" xmlns="http://www.w3.org/2000/svg">
<path fill-rule="evenodd" clip-rule="evenodd" d="M9.91274 2.10896e-08C8.33192 0.000127065 6.77406 0.356869 5.36912 1.04046C3.96418 1.72406 2.75291 2.71468 1.83636 3.92968C0.919812 5.14469 0.324567 6.54884 0.100285 8.02499C-0.123997 9.50114 0.0291883 11.0065 0.547061 12.4154C1.06493 13.8244 1.93248 15.0961 3.07731 16.1244C4.22214 17.1527 5.61107 17.9079 7.1282 18.3269C8.64534 18.7459 10.2467 18.8165 11.7987 18.533C13.3506 18.2494 14.8082 17.6198 16.0498 16.6968L20.3092 20.7148C20.5291 20.9152 20.8237 21.0261 21.1295 21.0236C21.4353 21.0211 21.7279 20.9054 21.9441 20.7014C22.1604 20.4974 22.283 20.2214 22.2857 19.933C22.2883 19.6445 22.1708 19.3666 21.9583 19.1591L17.699 15.1411C18.8513 13.7621 19.5688 12.105 19.7693 10.3593C19.9698 8.61361 19.6453 6.84994 18.8329 5.27011C18.0205 3.69029 16.753 2.35814 15.1755 1.42613C13.5979 0.494112 11.7741 -0.00011788 9.91274 2.10896e-08ZM2.33176 9.35179C2.33176 7.45513 3.13047 5.63615 4.55218 4.29501C5.97389 2.95387 7.90214 2.20042 9.91274 2.20042C11.9233 2.20042 13.8516 2.95387 15.2733 4.29501C16.695 5.63615 17.4937 7.45513 17.4937 9.35179C17.4937 11.2485 16.695 13.0674 15.2733 14.4086C13.8516 15.7497 11.9233 16.5032 9.91274 16.5032C7.90214 16.5032 5.97389 15.7497 4.55218 14.4086C3.13047 13.0674 2.33176 11.2485 2.33176 9.35179Z" fill="#1E1E1E"/>
</svg>
